<svg width="640" height="180" viewBox="0 0 640 180" fill="none" xmlns="http://www.w3.org/2000/svg">
  <rect width="640" height="180" rx="28" fill="#0F0C09"/>
  <rect x="14" y="14" width="612" height="152" rx="20" fill="url(#panel)" stroke="url(#stroke)" stroke-width="1.5"/>
  <path d="M79 49H139C151.15 49 161 58.8497 161 71V109C161 121.15 151.15 131 139 131H79C66.8497 131 57 121.15 57 109V71C57 58.8497 66.8497 49 79 49Z" fill="url(#mark)" stroke="#D9B15F" stroke-opacity="0.55"/>
  <path d="M90 88H129" stroke="#0F0C09" stroke-width="7" stroke-linecap="round"/>
  <path d="M109.5 65V114" stroke="#0F0C09" stroke-width="7" stroke-linecap="round"/>
  <text x="191" y="93" fill="#F7E8BE" font-family="Georgia, 'Times New Roman', serif" font-size="58" font-weight="700" letter-spacing="-1.8">Proof18</text>
  <text x="193" y="122" fill="#C7B48B" font-family="Arial, Helvetica, sans-serif" font-size="18" letter-spacing="2.6">PRIVATE POLICY • CONTROLLED AUTONOMY</text>
  <defs>
    <linearGradient id="panel" x1="64" y1="28" x2="580" y2="160" gradientUnits="userSpaceOnUse">
      <stop stop-color="#18120D"/>
      <stop offset="1" stop-color="#0B0908"/>
    </linearGradient>
    <linearGradient id="stroke" x1="38" y1="24" x2="612" y2="170" gradientUnits="userSpaceOnUse">
      <stop stop-color="#E3C37A"/>
      <stop offset="1" stop-color="#7D6436"/>
    </linearGradient>
    <linearGradient id="mark" x1="57" y1="49" x2="161" y2="131" gradientUnits="userSpaceOnUse">
      <stop stop-color="#F2D389"/>
      <stop offset="1" stop-color="#B28638"/>
    </linearGradient>
  </defs>
</svg>
